# xmcd
#
# Track frame offsets:
#	150
#	13655
#	30311
#	48767
#	65722
#	81627
#	98582
#	117187
#	135193
#	150348
#	168203
#	186209
#
# Disc length: 2686 seconds
#
# Revision: 1
# Processed by: cddbd v1.5.1PL0 Copyright (c) Steve Scherf et al.
# Submitted via: audiograbber 1.82.01
#
DISCID=880a7c0c
DTITLE=Leann Rimes - This Woman
DYEAR=2005
DGENRE=Country
TTITLE0=I Want To With You
TTITLE1=You Take Me Home
TTITLE2=Something's Gotta Give
TTITLE3=Won't Be Lonely Long
TTITLE4=Nothin' Bout Love Makes Sense
TTITLE5=Probably Wouldn't Be This Way
TTITLE6=The Weight Of Love
TTITLE7=With You
TTITLE8=I Got It Bad
TTITLE9=I Dare You
TTITLE10=When This Woman Loves A Man
TTITLE11=Some People
EXTD=
EXTT0=
EXTT1=
EXTT2=
EXTT3=
EXTT4=
EXTT5=
EXTT6=
EXTT7=
EXTT8=
EXTT9=
EXTT10=
EXTT11=
PLAYORDER=
